**ABCDEFGHIJKLMNOPQRSTUVWXYZabcdefghijklmnopqrstuvwxyz**************************
**PARASOLID !"#$%&'()*+,-./:;<=>?@[\]^_`{|}~0123456789**************************
**PART1;
MC=unknown;
MC_MODEL=unknown;
MC_ID=unknown;
OS=unknown;
OS_RELEASE=unknown;
FRU=sdl_parasolid_customer_support;
APPL=parasolid_acceptance_tests;
SITE=unknown;
USER=unknown;
FORMAT=text;
GUISE=transmit;
KEY=/lore/joshia5/develop/inclusion_solver/meshes/simx/setup_1x1_crv_nat.x_t;
FILE=/lore/joshia5/develop/inclusion_solver/meshes/simx/setup_1x1_crv_nat.x_t;
DATE=unknown;
**PART2;
SCH=SCH_3100154_31001;
USFLD_SIZE=1;
**PART3;
**END_OF_HEADER*****************************************************************
T51 : TRANSMIT FILE created by modeller version 310015423 SCH_3100154_31001_1300
6215 1 12 34 CCCCCCI4 mesh1006 0 I8 polyline1008 0 CCCCCCCDI5 owner1040 0 CCCCCC
I13 boundary_mesh1006 0 I17 boundary_polyline1008 0 CCCA16 index_map_offset0 0 1
 dA9 index_map82 0 A17 node_id_index_map82 0 A20 schema_embedding_map82 0 A5 chi
ld12 0 A14 lowest_node_id0 0 1 dA16 mesh_offset_data206 0 Z1 207 2 3 0 0 0 0 0 0
 1e3 1e-8 0 4 0 1 0 6 1 0 5 6 7 0 0 8 9 10 0 0 0 0 0 0 0 0 81 255 1 2 181 11 1 1
2 0 0 0 0 0 70 11 CI9 list_type0 0 1 uI10 notransmit0 0 1 lCCCDCCDI12 finger_ind
ex0 0 1 dI12 finger_block1012 0 CZ3 0 4 T1 0 0 6 20 1 13 13 0 68 255 5 198 0 14
 15 0 0 +6 0 0 .2 0 .5 -.866025403784439 0 -.05 .286602540378444 0 .05 .11339745
9621556 0 3.141592653589795 0 -.866025403784439 -.5 ?0 32 255 6 199 0 1 16 0 17
 +0 -14210854715202e-30 .2 1 0 0 0 -.5 .866025403784439 .1 .04 0 29 255 7 67 0 1
8 19 0 .55 .55 .4 0 19 8 CCCCCCCA5 owner12 0 Z8 178 0 1 20 0 21 V0 0 16 255 9 73
 22 ?23 0 24 25 0 0 1 0 18 255 10 15 0 26 0 27 28 ?1 0 17 255 26 0 29 30 31 10 3
2 33 0 34 +0 18 27 10 0 31 10 35 36 ?1 0 29 28 17 0 10 36 37 .55 .55 0 0 29 36 1
2 0 27 38 28 -.55 .55 0 0 29 37 70 0 39 28 40 .55 -.55 .4 0 18 39 60 0 41 42 0 3
7 ?1 0 29 40 69 0 42 37 19 -.55 -.55 .4 0 18 42 58 0 43 44 39 40 ?1 0 29 19 68 0
 44 40 7 -.55 .55 .4 0 18 44 56 0 45 18 42 19 ?1 0 17 45 0 46 47 23 44 43 48 0 4
9 +0 18 18 54 0 50 51 44 7 ?1 0 17 50 0 52 34 49 18 53 54 0 55 +0 18 51 2 0 30 3
5 18 56 ?1 0 17 30 0 29 57 26 51 58 59 0 60 +0 18 35 5 0 61 27 51 38 ?1 0 29 56
 4 0 51 0 38 .55 -.55 0 0 29 38 7 0 35 56 36 -.55 -.55 0 0 17 61 0 46 23 47 35 3
1 62 0 57 -0 15 255 46 79 0 45 63 0 0 17 23 0 46 45 61 42 64 9 0 65 +0 17 47 0 4
6 61 45 27 49 24 0 32 -0 17 31 0 29 26 57 27 61 62 0 47 +0 16 62 11 66 ?31 33 67
 68 0 0 1 0 17 57 0 29 31 30 35 69 67 0 64 +0 15 29 23 0 57 70 0 0 17 69 0 71 72
 64 51 57 67 0 0 -0 16 67 6 73 ?57 62 74 75 0 0 1 0 17 64 0 71 69 65 35 23 9 0 0
 -0 15 71 81 0 65 76 0 0 17 65 0 71 64 72 42 77 78 0 0 +0 17 72 0 71 65 69 39 60
 79 0 77 +0 17 77 0 80 81 43 39 65 78 0 0 -0 16 78 52 82 ?65 48 0 83 0 0 1 0 81
 1 82 116 84 78 0 0 85 86 87 0 16 48 50 88 ?45 54 78 89 0 0 1 0 30 255 83 66 0 7
8 90 89 0 +.55 -.55 .4 -1 0 0 0 30 90 22 0 59 91 83 0 +.55 .55 0 0 -1 0 0 30 89
 65 0 48 83 92 0 +-.55 -.55 .4 0 1 0 0 30 92 64 0 54 89 93 0 +-.55 .55 .4 1 0 0
 0 16 54 48 94 ?50 74 48 92 0 0 1 0 30 93 63 0 74 92 95 0 +.55 .55 .4 0 -1 0 0 1
6 74 46 96 ?41 67 54 93 0 0 1 0 30 95 87 0 97 93 98 0 +.55 .55 0 0 0 1 0 16 97 7
1 99 ?55 24 79 95 0 0 1 0 30 98 88 0 24 95 25 0 +-.55 .55 0 0 0 1 0 16 24 72 86
 ?49 9 97 98 0 0 1 0 30 25 89 0 9 98 16 0 +-.55 -.55 0 0 0 1 0 30 16 90 0 79 25
 6 0 +.55 -.55 0 0 0 1 0 16 79 74 100 ?72 97 59 16 0 0 1 0 81 1 100 120 84 79 0
 0 88 73 101 0 16 59 20 85 ?30 79 33 90 0 0 1 0 81 1 85 115 84 59 0 0 96 82 102
 0 16 33 16 103 ?26 59 62 91 0 0 1 0 81 1 103 123 84 33 0 0 94 104 105 0 30 91 1
9 0 33 68 90 0 +-.55 .55 0 1 0 0 0 30 68 14 0 62 75 91 0 +-.55 -.55 0 0 1 0 0 30
 75 9 0 67 0 68 0 +.55 -.55 0 -1 0 0 0 80 255 1 84 106 107 9000 1 1 1 1 1 1 1 1
 0 FFFFTFTFFFFFFF3 0 81 1 94 122 84 54 0 0 73 103 108 0 81 1 104 124 84 63 0 109
 103 110 111 0 84 255 32 105 97935453c32343e9d6cd4c99c6428a1c0 14 255 63 80 109
 ?112 76 46 113 114 -0 0 112 76 21 0 81 1 109 135 115 63 104 0 116 117 118 0 81
 1 110 125 84 70 0 119 104 120 121 0 84 32 111 076ef0994a6daecce3cc730da47f59650
 14 70 24 119 ?122 123 29 113 124 +0 0 122 123 21 0 81 1 119 138 115 70 110 0 12
5 126 127 0 81 1 120 126 84 112 0 117 110 128 129 0 84 32 121 08c73b05224c1019b5
31a40e35a341b50 14 112 78 117 ?123 63 52 113 130 -0 0 123 63 21 0 81 1 117 136 1
15 112 120 0 109 125 131 0 81 1 128 127 84 122 0 126 120 132 133 0 84 32 129 ab3
ff7ab34b34c133b23e85fd7560e690 14 122 42 126 ?0 70 80 113 134 -0 0 0 70 21 0 81
 1 126 139 115 122 128 0 119 135 136 0 81 1 132 128 84 76 0 116 128 137 138 0 84
 32 133 43880380fb964e2a6104206f3a5c5fa60 14 76 82 116 ?63 0 71 113 15 -0 0 63 0
 21 0 81 1 116 134 115 76 132 0 0 109 139 0 81 1 137 129 84 123 0 125 132 0 140
 0 84 32 138 5ffbd2037fb241d3f6919210f7f795ef0 14 123 76 125 ?70 112 141 113 142
 -0 0 70 112 21 0 81 1 125 137 115 123 137 0 117 119 143 0 84 32 140 86a9223cd20
ef5ae8d8031f27305fa830 80 1 115 0 144 8001 0 0 0 0 3 5 0 0 0 FFFFTFTFFFFFFF2 0 8
3 255 3 143 .5960784 .6666667 .6862745 0 79 255 15 144 SDL/TYSA_COLOUR0 15 141 7
5 0 41 123 0 0 13 255 113 91 0 0 0 76 0 0 20 0 0 50 255 142 83 0 123 134 130 0 +
.55 .55 0 -1 0 0 0 0 1 0 13 21 3 0 0 0 0 0 0 8 76 0 50 134 62 0 122 124 142 0 +0
 0 .4 0 0 -1 -1 0 0 0 50 130 84 0 112 142 114 0 +-.55 .55 0 0 -1 0 0 0 -1 0 50 1
14 85 0 63 130 15 0 +-.55 -.55 0 1 0 0 0 0 -1 0 50 15 86 0 76 114 5 0 +.55 -.55
 0 0 1 0 0 0 1 0 50 124 25 0 70 0 134 0 +0 0 0 0 0 -1 -1 0 0 0 19 20 92 145 1 14
6 8 147 S0 0 81 1 145 205 148 20 0 0 0 149 150 0 19 146 186 149 1 0 20 151 S0 0
 13 147 183 0 0 113 0 0 0 20 14 0 14 14 190 135 ?0 0 0 151 5 -0 0 0 0 147 0 81 1
 135 194 115 14 0 0 126 0 152 0 13 151 187 0 0 0 14 0 0 146 0 0 83 3 152 .596078
4 .6666667 .6862745 0 81 1 149 207 148 146 0 0 145 0 153 0 80 1 148 11 154 9000
 0 0 0 0 3 6 0 0 0 TTTFTFTTFFFFTF3 0 84 6 153 Part 10 79 11 154 SimPartName0 84
 6 150 Part 10 17 41 0 141 60 55 39 81 74 0 72 +0 17 60 0 141 58 41 51 72 79 0 6
9 -0 17 55 0 141 41 58 18 34 97 0 81 +0 17 81 0 80 53 77 18 41 74 0 0 -0 15 80 4
5 0 77 122 0 0 17 53 0 80 43 81 44 50 54 0 0 -0 17 43 0 80 77 53 42 45 48 0 23 -
0 17 58 0 141 55 60 10 30 59 0 0 -0 17 34 0 52 32 50 10 55 97 0 58 -0 15 52 77 0
 50 112 0 0 17 32 0 52 49 34 27 26 33 0 0 -0 17 49 0 52 50 32 44 47 24 0 53 +0 8
3 3 139 .5960784 .6666667 .6862745 0 83 3 136 .5960784 .6666667 .6862745 0 83 3
 131 .5960784 .6666667 .6862745 0 83 3 127 .5960784 .6666667 .6862745 0 83 3 118
 .5960784 .6666667 .6862745 0 81 1 73 121 84 67 0 0 100 94 155 0 84 32 108 5e024
18605c9de28dcfff9d3e301fc9d0 84 32 155 deccb9a271b7660b55ec5afba9a2a7f20 79 15 1
07 UGS/ObjectState0 81 1 96 114 84 74 0 0 22 85 156 0 84 32 102 c06bf63828892431
7aa147407c60b37b0 81 1 22 113 84 9 0 0 66 96 157 0 84 32 156 a3f6df2d0b737b65eee
7fbcc98f60b540 81 1 66 112 84 62 0 0 0 22 158 0 84 32 157 6d510e946592a644f8be6d
92a4e9bf1e0 84 32 158 2346e478860eb4c9a6e50d2af24caacc0 81 1 88 119 84 48 0 0 99
 100 159 0 84 32 101 9fd20eacbf2445c5f110717186fb1e1b0 81 1 99 118 84 97 0 0 86
 88 160 0 84 32 159 0ad658169b14a3e33f1c5bbd97b3547b0 81 1 86 117 84 24 0 0 82 9
9 161 0 84 32 160 8a0fc930cfd21ffc43025d4051b410c20 84 32 161 cb950e175ebb6f673a
af1736d39cc6f60 84 32 87 60db087b575ff6eaa9b6b9fe0289dd370 141 255 17 5 17 17 6
 0 74 4 CI16 index_map_offset0 0 1 dCCZ20 13 6 0 0 137 162 135 12 2 149 0 0 0 0
 0 0 0 0 0 0 0 0 0 0 0 81 2 162 130 163 1 0 12 0 0 164 165 0 81 1 12 140 166 1 1
62 2 0 0 167 0 80 1 166 84 168 9000 0 0 0 0 3 5 0 0 0 FFTFFFFFFFFFFF1 0 82 255 1
 167 129 0 79 24 168 UG2/BODY_COLOR_ATTRIBUTE0 80 2 163 169 170 8004 0 0 0 0 3 5
 0 0 0 FFTFFFFFFFFFFF2 3 0 83 1 164 7830.64 0 84 8 165 Kg/Cu M 0 79 16 170 SDL/T
YSA_DENSITY0 80 1 11 166 171 9000 0 0 0 0 3 6 0 0 0 FFTFTFTTFFFFTF9 0 79 23 171
 Sim_NM_AssemblyModelAtt0 1 0 
