**ABCDEFGHIJKLMNOPQRSTUVWXYZabcdefghijklmnopqrstuvwxyz**************************
**PARASOLID !"#$%&'()*+,-./:;<=>?@[\]^_`{|}~0123456789**************************
**PART1;
MC=unknown;
MC_MODEL=unknown;
MC_ID=unknown;
OS=unknown;
OS_RELEASE=unknown;
FRU=sdl_parasolid_customer_support;
APPL=parasolid_acceptance_tests;
SITE=unknown;
USER=unknown;
FORMAT=text;
GUISE=transmit;
KEY=/lore/hakimm2/220309_inclusion_example_for_ceed/simx/setup_5x5_nat.x_t;
FILE=/lore/hakimm2/220309_inclusion_example_for_ceed/simx/setup_5x5_nat.x_t;
DATE=unknown;
**PART2;
SCH=SCH_3200152_32001;
USFLD_SIZE=1;
**PART3;
**END_OF_HEADER*****************************************************************
T51 : TRANSMIT FILE created by modeller version 320015223 SCH_3200152_32001_1300
6227 1 12 34 CCCCCCI4 mesh1006 0 I8 polyline1008 0 CCCCCCCDI5 owner1040 0 CCCCCC
I13 boundary_mesh1006 0 I17 boundary_polyline1008 0 CCCA16 index_map_offset0 0 1
 dA9 index_map82 0 A17 node_id_index_map82 0 A20 schema_embedding_map82 0 A5 chi
ld12 0 A14 lowest_node_id0 0 1 dA16 mesh_offset_data206 0 Z1 4568 2 3 0 0 0 0 0
 0 1e3 1e-8 0 4 0 1 0 6 1 0 5 6 7 0 0 8 9 10 0 0 0 0 0 0 0 0 81 255 1 2 4523 11
 1 12 0 12 0 0 0 70 11 CI9 list_type0 0 1 uI10 notransmit0 0 1 lCCCDCCDI12 finge
r_index0 0 1 dI12 finger_block1012 0 CZ3 0 4 T1 0 0 6 20 1 13 13 0 50 255 5 86 0
 14 15 0 0 +.55 -.55 0 0 1 0 0 0 1 0 30 255 6 90 0 16 17 0 0 +.55 -.55 0 0 0 1 0
 29 255 7 67 0 18 19 0 .55 .55 .4 0 19 8 CCCCCCCA5 owner12 0 Z8 4470 0 1 20 0 21
 V0 0 16 255 9 73 22 ?23 0 24 17 0 0 1 0 18 255 10 15 0 25 0 26 27 ?1 0 17 255 2
5 0 28 29 30 10 31 32 0 33 +0 18 26 10 0 30 10 34 35 ?1 0 29 27 17 0 10 35 36 .5
5 .55 0 0 29 35 12 0 26 37 27 -.55 .55 0 0 29 36 70 0 38 27 39 .55 -.55 .4 0 18
 38 60 0 40 41 0 36 ?1 0 29 39 69 0 41 36 19 -.55 -.55 .4 0 18 41 58 0 42 43 38
 39 ?1 0 29 19 68 0 43 39 7 -.55 .55 .4 0 18 43 56 0 44 18 41 19 ?1 0 17 44 0 45
 46 23 43 42 47 0 48 +0 18 18 54 0 49 50 43 7 ?1 0 17 49 0 51 33 48 18 52 53 0 5
4 +0 18 50 2 0 29 34 18 55 ?1 0 17 29 0 28 56 25 50 57 58 0 59 +0 18 34 5 0 60 2
6 50 37 ?1 0 29 55 4 0 50 0 37 .55 -.55 0 0 29 37 7 0 34 55 35 -.55 -.55 0 0 17
 60 0 45 23 46 34 30 61 0 56 -0 15 255 45 79 0 44 62 0 0 17 23 0 45 44 60 41 63
 9 0 64 +0 17 46 0 45 60 44 26 48 24 0 31 -0 17 30 0 28 25 56 26 60 61 0 46 +0 1
6 61 11 65 ?30 32 66 67 0 0 1 0 17 56 0 28 30 29 34 68 66 0 63 +0 15 28 23 0 56
 69 0 0 17 68 0 70 71 63 50 56 66 0 0 -0 16 66 6 72 ?56 61 73 74 0 0 1 0 17 63 0
 70 68 64 34 23 9 0 0 -0 15 70 81 0 64 14 0 0 17 64 0 70 63 71 41 75 76 0 0 +0 1
7 71 0 70 64 68 38 59 16 0 75 +0 17 75 0 77 78 42 38 64 76 0 0 -0 16 76 52 79 ?6
4 47 0 80 0 0 1 0 81 1 79 116 81 76 0 0 82 83 84 0 16 47 50 85 ?44 53 76 86 0 0
 1 0 30 80 66 0 76 87 86 0 +.55 -.55 .4 -1 0 0 0 30 87 22 0 58 88 80 0 +.55 .55
 0 0 -1 0 0 30 86 65 0 47 80 89 0 +-.55 -.55 .4 0 1 0 0 30 89 64 0 53 86 90 0 +-
.55 .55 .4 1 0 0 0 16 53 48 91 ?49 73 47 89 0 0 1 0 30 90 63 0 73 89 92 0 +.55 .
55 .4 0 -1 0 0 16 73 46 93 ?40 66 53 90 0 0 1 0 30 92 87 0 94 90 95 0 +.55 .55 0
 0 0 1 0 16 94 71 96 ?54 24 16 92 0 0 1 0 30 95 88 0 24 92 17 0 +-.55 .55 0 0 0
 1 0 16 24 72 83 ?48 9 94 95 0 0 1 0 30 17 89 0 9 95 6 0 +-.55 -.55 0 0 0 1 0 81
 1 83 117 81 24 0 0 79 96 97 0 17 48 0 51 49 31 43 46 24 0 52 +0 15 51 77 0 49 9
8 0 0 17 31 0 51 48 33 26 25 32 0 0 -0 17 52 0 77 42 78 43 49 53 0 0 -0 15 77 45
 0 75 99 0 0 17 42 0 77 75 52 41 44 47 0 23 -0 17 78 0 77 52 75 18 40 73 0 0 -0
 17 40 0 100 59 54 38 78 73 0 71 +0 15 100 75 0 40 101 0 0 17 59 0 100 57 40 50
 71 16 0 68 -0 17 54 0 100 40 57 18 33 94 0 78 +0 17 57 0 100 54 59 10 29 58 0 0
 -0 17 33 0 51 31 49 10 54 94 0 57 -0 16 58 20 82 ?29 16 32 87 0 0 1 0 81 1 82 1
15 81 58 0 0 93 79 102 0 16 16 74 103 ?71 94 58 6 0 0 1 0 16 32 16 104 ?25 58 61
 88 0 0 1 0 81 1 104 123 81 32 0 0 91 105 106 0 30 88 19 0 32 67 87 0 +-.55 .55
 0 1 0 0 0 30 67 14 0 61 74 88 0 +-.55 -.55 0 0 1 0 0 30 74 9 0 66 107 67 0 +.55
 -.55 0 -1 0 0 0 32 255 107 473 0 1 108 74 109 +.2 -.2 .2 1 0 0 0 -.5 .866025403
784439 .1 .04 0 32 108 474 0 1 110 107 111 +0 -14210854715202e-30 .2 1 0 0 0 -.5
 .866025403784439 .1 .04 0 141 255 109 112 109 109 107 0 68 255 112 448 0 113 11
4 115 0 +107 .2 -.2 .2 0 .5 -.866025403784439 .2 -.25 .286602540378444 .2 -.15 .
113397459621556 0 3.141592653589795 0 -.866025403784439 -.5 ?0 14 255 113 369 11
6 ?0 0 0 117 112 +0 0 0 0 118 0 68 114 449 0 119 120 112 0 +108 0 0 .2 0 .5 -.86
6025403784439 0 -.05 .286602540378444 0 .05 .113397459621556 0 3.141592653589795
 0 -.866025403784439 -.5 0 0 50 115 25 0 69 112 121 0 +0 0 0 0 0 -1 -1 0 0 0 14
 69 24 122 ?99 101 28 123 115 +0 0 99 101 21 0 50 121 62 0 99 115 124 0 +0 0 .4
 0 0 -1 -1 0 0 0 14 99 42 125 ?0 69 77 123 121 -0 0 0 69 21 0 50 124 83 0 101 12
1 126 0 +.55 .55 0 -1 0 0 0 0 1 0 14 101 76 127 ?69 98 100 123 124 -0 0 69 98 21
 0 50 126 84 0 98 124 15 0 +-.55 .55 0 0 -1 0 0 0 -1 0 14 98 78 128 ?101 62 51 1
23 126 -0 0 101 62 21 0 50 15 85 0 62 126 5 0 +-.55 -.55 0 1 0 0 0 0 -1 0 14 62
 80 129 ?98 14 45 123 15 -0 0 98 14 21 0 81 1 129 534 130 62 105 0 131 128 132 0
 14 14 82 131 ?62 0 70 123 5 -0 0 62 0 21 0 13 255 123 91 0 0 133 14 0 0 20 0 0
 13 21 3 0 0 0 0 0 0 8 14 0 13 133 224 0 0 134 135 0 0 20 0 0 19 20 92 136 1 137
 8 123 S0 0 81 1 136 4543 138 20 0 0 0 139 140 0 19 137 2590 139 1 141 20 142 S0
 0 81 1 139 4544 138 137 0 0 136 143 144 0 19 141 2435 143 1 145 137 146 S0 0 13
 142 374 0 0 0 0 0 0 137 135 0 14 135 226 147 ?0 0 0 133 148 +0 0 0 0 142 0 81 1
 147 539 130 135 149 0 125 150 151 0 68 148 459 0 135 152 153 0 +154 -.2 .4 .2 0
 .5 -.866025403784439 -.2 .35 .286602540378444 -.2 .45 .113397459621556 0 3.1415
92653589795 0 -.866025403784439 -.5 ?0 68 152 460 0 155 156 148 0 +157 .2 -.4 .2
 0 .5 -.866025403784439 .2 -.45 .286602540378444 .2 -.35 .113397459621556 0 3.14
1592653589795 0 -.866025403784439 -.5 ?0 68 153 458 0 158 148 159 0 +160 .2 .4 .
2 0 .5 -.866025403784439 .2 .35 .286602540378444 .2 .45 .113397459621556 0 3.141
592653589795 0 -.866025403784439 -.5 ?0 32 154 484 0 1 157 160 161 +-.2 .4 .2 1
 0 0 0 -.5 .866025403784439 .1 .04 0 32 157 485 0 1 162 154 163 +.2 -.4 .2 1 0 0
 0 -.5 .866025403784439 .1 .04 0 32 160 483 0 1 154 164 165 +.2 .4 .2 1 0 0 0 -.
5 .866025403784439 .1 .04 0 141 161 148 161 161 154 0 32 164 482 0 1 160 166 167
 +-.4 -.4 .2 1 0 0 0 -.5 .866025403784439 .1 .04 0 141 165 153 165 165 160 0 32
 166 481 0 1 164 168 169 +0 -.4 .2 1 0 0 0 -.5 .866025403784439 .1 .04 0 141 167
 159 167 167 164 0 68 159 457 0 170 153 171 0 +164 -.4 -.4 .2 0 .5 -.86602540378
4439 -.4 -.45 .286602540378444 -.4 -.35 .113397459621556 0 3.141592653589795 0 -
.866025403784439 -.5 ?0 14 170 238 172 ?0 0 0 173 159 +0 0 0 0 174 0 68 171 456
 0 175 159 176 0 +166 0 -.4 .2 0 .5 -.866025403784439 0 -.45 .286602540378444 0
 -.35 .113397459621556 0 3.141592653589795 0 -.866025403784439 -.5 ?0 14 175 303
 177 ?0 0 0 178 171 +0 0 0 0 179 0 68 176 455 0 180 171 181 0 +168 -.4 .4 .2 0 .
5 -.866025403784439 -.4 .35 .286602540378444 -.4 .45 .113397459621556 0 3.141592
653589795 0 -.866025403784439 -.5 ?0 14 180 297 182 ?0 0 0 183 176 +0 0 0 0 184
 0 68 181 454 0 185 176 186 0 +187 0 .4 .2 0 .5 -.866025403784439 0 .35 .2866025
40378444 0 .45 .113397459621556 0 3.141592653589795 0 -.866025403784439 -.5 ?0 3
2 168 480 0 1 166 187 188 +-.4 .4 .2 1 0 0 0 -.5 .866025403784439 .1 .04 0 32 18
7 479 0 1 168 189 190 +0 .4 .2 1 0 0 0 -.5 .866025403784439 .1 .04 0 141 188 176
 188 188 168 0 32 189 478 0 1 187 191 192 +.4 -.4 .2 1 0 0 0 -.5 .86602540378443
9 .1 .04 0 141 190 181 190 190 187 0 32 191 477 0 1 189 193 194 +-.2 -.2 .2 1 0
 0 0 -.5 .866025403784439 .1 .04 0 141 192 186 192 192 189 0 68 186 453 0 195 18
1 196 0 +189 .4 -.4 .2 0 .5 -.866025403784439 .4 -.45 .286602540378444 .4 -.35 .
113397459621556 0 3.141592653589795 0 -.866025403784439 -.5 ?0 14 195 309 197 ?0
 0 0 198 186 +0 0 0 0 199 0 68 196 452 0 200 186 201 0 +191 -.2 -.2 .2 0 .5 -.86
6025403784439 -.2 -.25 .286602540378444 -.2 -.15 .113397459621556 0 3.1415926535
89795 0 -.866025403784439 -.5 ?0 14 200 280 202 ?0 0 0 203 196 +0 0 0 0 204 0 68
 201 451 0 205 196 120 0 +193 .4 .4 .2 0 .5 -.866025403784439 .4 .35 .2866025403
78444 .4 .45 .113397459621556 0 3.141592653589795 0 -.866025403784439 -.5 ?0 14
 205 274 206 ?0 0 0 207 201 +0 0 0 0 208 0 68 120 450 0 209 201 114 0 +110 -.4 -
.2 .2 0 .5 -.866025403784439 -.4 -.25 .286602540378444 -.4 -.15 .113397459621556
 0 3.141592653589795 0 -.866025403784439 -.5 ?0 32 193 476 0 1 191 110 210 +.4 .
4 .2 1 0 0 0 -.5 .866025403784439 .1 .04 0 32 110 475 0 1 193 108 211 +-.4 -.2 .
2 1 0 0 0 -.5 .866025403784439 .1 .04 0 141 210 201 210 210 193 0 141 211 120 21
1 211 110 0 14 209 291 212 ?0 0 0 213 120 +0 0 0 0 214 0 81 1 212 550 130 209 21
5 0 216 182 217 0 13 213 289 0 0 183 209 0 0 20 0 0 13 214 407 0 0 0 0 0 0 218 2
09 0 19 218 3711 219 1 220 221 214 S0 0 81 1 219 4555 138 218 0 0 222 223 224 0
 19 220 4184 223 1 225 218 184 S0 0 19 221 4494 222 1 218 226 227 S0 0 81 1 222
 4554 138 221 0 0 228 219 229 0 19 226 1823 228 1 221 230 204 S0 0 13 227 404 0
 0 0 0 0 0 221 119 0 14 119 286 216 ?0 0 0 231 114 +0 0 0 0 227 0 81 1 216 549 1
30 119 232 0 202 212 233 0 13 231 284 0 0 213 119 0 0 20 0 0 80 255 1 130 0 234
 8001 0 0 0 0 3 5 0 0 0 FFFFTFTFFFFFFF2 0 81 1 232 523 81 119 0 216 235 236 237
 0 81 1 202 548 130 200 238 0 206 216 239 0 83 255 3 233 .5960784 .6666667 .6862
745 0 81 1 238 525 81 200 0 202 236 240 241 0 81 1 206 547 130 205 242 0 243 202
 244 0 83 3 239 .5960784 .6666667 .6862745 0 81 1 242 513 81 205 0 206 215 245 2
46 0 81 1 243 546 130 247 248 0 249 206 250 0 83 3 244 .5960784 .6666667 .686274
5 0 14 247 268 243 ?0 0 0 251 156 +0 0 0 0 252 0 81 1 248 507 81 247 0 243 253 2
54 255 0 81 1 249 545 130 256 257 0 258 243 259 0 83 3 250 .5960784 .6666667 .68
62745 0 14 256 262 249 ?0 0 0 260 261 +0 0 0 0 262 0 81 1 257 518 81 256 0 249 2
63 264 265 0 81 1 258 544 130 266 253 0 267 249 268 0 83 3 259 .5960784 .6666667
 .6862745 0 14 266 256 258 ?0 0 0 269 270 +0 0 0 0 271 0 81 1 253 506 81 266 0 2
58 149 248 272 0 81 1 267 543 130 273 263 0 274 258 275 0 83 3 268 .5960784 .666
6667 .6862745 0 14 273 250 267 ?0 0 0 276 277 +0 0 0 0 278 0 81 1 263 517 81 273
 0 267 279 257 280 0 81 1 274 542 130 158 281 0 172 267 282 0 83 3 275 .5960784
 .6666667 .6862745 0 14 158 244 274 ?0 0 0 283 153 +0 0 0 0 284 0 81 1 281 528 8
1 158 0 274 285 0 286 0 81 1 172 541 130 170 279 0 150 274 287 0 83 3 282 .59607
84 .6666667 .6862745 0 81 1 279 516 81 170 0 172 288 263 289 0 81 1 150 540 130
 155 290 0 147 172 291 0 83 3 287 .5960784 .6666667 .6862745 0 14 155 232 150 ?0
 0 0 134 152 +0 0 0 0 146 0 81 1 290 504 81 155 0 150 292 149 293 0 83 3 291 .59
60784 .6666667 .6862745 0 80 1 81 294 295 9000 1 1 1 1 1 1 1 1 0 FFFFTFTFFFFFFF3
 0 81 1 292 129 81 101 0 127 296 290 297 0 81 1 149 505 81 135 0 147 290 253 298
 0 84 255 32 293 f77902b32ec01f89fff5a07976f76efa0 84 32 298 ccb9e5efe95e47705bc
3542ebfd32d0c0 81 1 127 536 130 101 292 0 128 122 299 0 81 1 296 128 81 14 0 131
 300 292 301 0 84 32 297 86a9223cd20ef5ae8d8031f27305fa830 81 1 131 533 130 14 2
96 0 0 129 302 0 81 1 300 127 81 99 0 125 303 296 304 0 84 32 301 5ffbd2037fb241
d3f6919210f7f795ef0 81 1 125 538 130 99 300 0 122 147 305 0 81 1 303 126 81 98 0
 128 306 300 307 0 84 32 304 43880380fb964e2a6104206f3a5c5fa60 81 1 128 535 130
 98 303 0 129 127 308 0 81 1 306 125 81 69 0 122 105 303 309 0 84 32 307 ab3ff7a
b34b34c133b23e85fd7560e690 81 1 122 537 130 69 306 0 127 125 310 0 81 1 105 124
 81 62 0 129 104 306 311 0 84 32 309 08c73b05224c1019b531a40e35a341b50 84 32 311
 076ef0994a6daecce3cc730da47f59650 83 3 310 .5960784 .6666667 .6862745 0 83 3 30
8 .5960784 .6666667 .6862745 0 83 3 305 .5960784 .6666667 .6862745 0 83 3 302 .5
960784 .6666667 .6862745 0 83 3 299 .5960784 .6666667 .6862745 0 79 255 15 295 U
GS/ObjectState0 13 134 230 0 0 173 155 0 0 20 0 0 13 146 377 0 0 0 0 0 0 141 155
 0 13 173 236 0 0 283 170 0 0 20 0 0 13 283 242 0 0 276 158 0 0 20 0 0 13 276 24
8 0 0 269 273 0 0 20 0 0 13 269 254 0 0 260 266 0 0 20 0 0 13 260 260 0 0 251 25
6 0 0 20 0 0 13 251 266 0 0 207 247 0 0 20 0 0 13 207 272 0 0 203 205 0 0 20 0 0
 13 203 278 0 0 231 200 0 0 20 0 0 81 1 288 515 81 180 0 182 245 279 312 0 84 32
 289 d5ef1c0e7713b9f85e7cb9947066d8e20 81 1 182 551 130 180 288 0 212 177 313 0
 81 1 245 514 81 195 0 197 242 288 314 0 84 32 312 e48868858a1d34c5ab667a6df538c
2c90 81 1 197 553 130 195 245 0 177 315 316 0 84 32 314 fadcea50a3e32d8d7a70d63f
69da78e00 81 1 177 552 130 175 285 0 182 197 317 0 81 1 315 554 130 185 240 0 19
7 318 319 0 83 3 316 .5960784 .6666667 .6862745 0 14 185 315 315 ?0 0 0 320 181
 +0 0 0 0 321 0 81 1 240 526 81 185 0 315 238 285 322 0 81 1 318 555 130 323 324
 0 315 325 326 0 83 3 319 .5960784 .6666667 .6862745 0 14 323 321 318 ?0 0 0 327
 328 +0 0 0 0 329 0 81 1 324 521 81 323 0 318 330 235 331 0 81 1 325 556 130 332
 333 0 318 334 335 0 83 3 326 .5960784 .6666667 .6862745 0 14 332 327 325 ?0 0 0
 336 337 +0 0 0 0 338 0 81 1 333 510 81 332 0 325 339 340 341 0 81 1 334 557 130
 342 235 0 325 343 344 0 83 3 335 .5960784 .6666667 .6862745 0 14 342 333 334 ?0
 0 0 345 346 +0 0 0 0 347 0 81 1 235 522 81 342 0 334 324 232 348 0 81 1 343 558
 130 349 340 0 334 350 351 0 83 3 344 .5960784 .6666667 .6862745 0 14 349 339 34
3 ?0 0 0 352 353 +0 0 0 0 354 0 81 1 340 511 81 349 0 343 333 215 355 0 81 1 350
 559 130 356 264 0 343 357 358 0 83 3 351 .5960784 .6666667 .6862745 0 14 356 34
5 350 ?0 0 0 359 360 +0 0 0 0 361 0 81 1 264 519 81 356 0 350 257 330 362 0 81 1
 357 560 130 363 254 0 350 364 365 0 83 3 358 .5960784 .6666667 .6862745 0 14 36
3 351 357 ?0 0 0 366 367 +0 0 0 0 368 0 81 1 254 508 81 363 0 357 248 339 369 0
 81 1 364 561 130 370 330 0 357 371 372 0 83 3 365 .5960784 .6666667 .6862745 0
 14 370 357 364 ?0 0 0 373 374 +0 0 0 0 375 0 81 1 330 520 81 370 0 364 264 324
 376 0 81 1 371 562 130 377 339 0 364 116 378 0 83 3 372 .5960784 .6666667 .6862
745 0 14 377 363 371 ?0 0 0 379 380 +0 0 0 0 381 0 81 1 339 509 81 377 0 371 254
 333 382 0 81 1 116 563 130 113 236 0 371 0 383 0 83 3 378 .5960784 .6666667 .68
62745 0 81 1 236 524 81 113 0 116 232 238 384 0 83 3 383 .5960784 .6666667 .6862
745 0 84 32 384 f12500fe214adbac1227b7a6d599b57f0 84 32 382 57676cf14f73520aa38c
75a555d423b40 13 379 361 0 0 117 377 0 0 20 0 0 68 380 467 0 377 374 360 0 +385
 .4 .2 .2 0 .5 -.866025403784439 .4 .15 .286602540378444 .4 .25 .113397459621556
 0 3.141592653589795 0 -.866025403784439 -.5 ?0 13 381 443 0 0 0 0 0 0 386 377 0
 19 386 3264 387 1 388 389 381 S0 0 81 1 387 4567 138 386 0 0 390 391 392 0 19 3
88 1696 391 1 0 386 118 S0 0 19 389 1221 390 1 386 393 375 S0 0 81 1 390 4566 13
8 389 0 0 394 387 395 0 19 393 3103 394 1 389 396 368 S0 0 13 375 440 0 0 0 0 0
 0 389 370 0 81 1 394 4565 138 393 0 0 397 390 398 0 19 396 1060 397 1 393 399 3
61 S0 0 13 368 437 0 0 0 0 0 0 393 363 0 81 1 397 4564 138 396 0 0 400 394 401 0
 19 399 3570 400 1 396 402 354 S0 0 13 361 434 0 0 0 0 0 0 396 356 0 81 1 400 45
63 138 399 0 0 403 397 404 0 19 402 1527 403 1 399 405 347 S0 0 13 354 431 0 0 0
 0 0 0 399 349 0 81 1 403 4562 138 402 0 0 406 400 407 0 19 405 3409 406 1 402 4
08 338 S0 0 13 347 428 0 0 0 0 0 0 402 342 0 81 1 406 4561 138 405 0 0 409 403 4
10 0 19 408 1366 409 1 405 411 329 S0 0 13 338 425 0 0 0 0 0 0 405 332 0 81 1 40
9 4560 138 408 0 0 412 406 413 0 19 411 1992 412 1 408 414 321 S0 0 13 329 422 0
 0 0 0 0 0 408 323 0 81 1 412 4559 138 411 0 0 415 409 416 0 19 414 4031 415 1 4
11 225 199 S0 0 13 321 419 0 0 0 0 0 0 411 185 0 81 1 415 4558 138 414 0 0 417 4
12 418 0 19 225 2145 417 1 414 220 179 S0 0 13 199 416 0 0 0 0 0 0 414 195 0 81
 1 417 4557 138 225 0 0 223 415 419 0 13 179 413 0 0 0 0 0 0 225 175 0 80 1 138
 420 421 9000 0 0 0 0 3 6 0 0 0 TTTFTFTTFFFFTF3 0 81 1 223 4556 138 220 0 0 219
 417 422 0 84 6 419 Part 10 84 6 422 Part 10 79 11 421 SimPartName0 84 6 418 Par
t 10 84 6 416 Part 10 84 6 413 Part 10 84 6 410 Part 10 84 6 407 Part 10 84 6 40
4 Part 10 84 6 401 Part 10 84 6 398 Part 10 84 6 395 Part 10 81 1 391 4568 138 3
88 0 0 387 0 423 0 13 118 446 0 0 0 0 0 0 388 113 0 84 6 423 Part 10 84 6 392 Pa
rt 10 68 374 468 0 370 337 380 0 +424 -.2 0 .2 0 .5 -.866025403784439 -.2 -.05 .
286602540378444 -.2 .05 .113397459621556 0 3.141592653589795 0 -.866025403784439
 -.5 0 0 68 360 466 0 356 380 367 0 +425 .2 .2 .2 0 .5 -.866025403784439 .2 .15
 .286602540378444 .2 .25 .113397459621556 0 3.141592653589795 0 -.86602540378443
9 -.5 ?0 32 385 492 0 1 424 425 426 +.4 .2 .2 1 0 0 0 -.5 .866025403784439 .1 .0
4 0 32 424 493 0 1 427 385 428 +-.2 -14210854715202e-30 .2 1 0 0 0 -.5 .86602540
3784439 .1 .04 0 32 425 491 0 1 385 429 430 +.2 .2 .2 1 0 0 0 -.5 .8660254037844
39 .1 .04 0 141 426 380 426 426 385 0 32 429 490 0 1 425 431 432 +-.4 -142108547
15202e-30 .2 1 0 0 0 -.5 .866025403784439 .1 .04 0 141 430 360 430 430 425 0 32
 431 489 0 1 429 433 434 +0 .2 .2 1 0 0 0 -.5 .866025403784439 .1 .04 0 141 432
 367 432 432 429 0 68 367 465 0 363 360 277 0 +429 -.4 0 .2 0 .5 -.8660254037844
39 -.4 -.05 .286602540378444 -.4 .05 .113397459621556 0 3.141592653589795 0 -.86
6025403784439 -.5 ?0 68 277 464 0 273 367 270 0 +431 0 .2 .2 0 .5 -.866025403784
439 0 .15 .286602540378444 0 .25 .113397459621556 0 3.141592653589795 0 -.866025
403784439 -.5 ?0 68 270 463 0 266 277 261 0 +433 -.2 -.4 .2 0 .5 -.8660254037844
39 -.2 -.45 .286602540378444 -.2 -.35 .113397459621556 0 3.141592653589795 0 -.8
66025403784439 -.5 ?0 68 261 462 0 256 270 156 0 +435 .2 0 .2 0 .5 -.86602540378
4439 .2 -.05 .286602540378444 .2 .05 .113397459621556 0 3.141592653589795 0 -.86
6025403784439 -.5 ?0 32 433 488 0 1 431 435 436 +-.2 -.4 .2 1 0 0 0 -.5 .8660254
03784439 .1 .04 0 32 435 487 0 1 433 162 437 +.2 -14210854715202e-30 .2 1 0 0 0
 -.5 .866025403784439 .1 .04 0 141 436 270 436 436 433 0 32 162 486 0 1 435 157
 438 +.4 -14210854715202e-30 .2 1 0 0 0 -.5 .866025403784439 .1 .04 0 141 437 26
1 437 437 435 0 141 438 156 438 438 162 0 68 156 461 0 247 261 152 0 +162 .4 0 .
2 0 .5 -.866025403784439 .4 -.05 .286602540378444 .4 .05 .113397459621556 0 3.14
1592653589795 0 -.866025403784439 -.5 ?0 141 434 277 434 434 431 0 32 427 494 0
 1 439 424 440 +.4 -.2 .2 1 0 0 0 -.5 .866025403784439 .1 .04 0 141 428 374 428
 428 424 0 32 439 495 0 1 441 427 442 +-.2 .2 .2 1 0 0 0 -.5 .866025403784439 .1
 .04 0 141 440 337 440 440 427 0 68 337 469 0 332 328 374 0 +427 .4 -.2 .2 0 .5
 -.866025403784439 .4 -.25 .286602540378444 .4 -.15 .113397459621556 0 3.1415926
53589795 0 -.866025403784439 -.5 ?0 68 328 470 0 323 353 337 0 +439 -.2 .2 .2 0
 .5 -.866025403784439 -.2 .15 .286602540378444 -.2 .25 .113397459621556 0 3.1415
92653589795 0 -.866025403784439 -.5 ?0 68 353 471 0 349 346 328 0 +441 -.4 .2 .2
 0 .5 -.866025403784439 -.4 .15 .286602540378444 -.4 .25 .113397459621556 0 3.14
1592653589795 0 -.866025403784439 -.5 ?0 68 346 472 0 342 0 353 0 +443 0 -.2 .2
 0 .5 -.866025403784439 0 -.25 .286602540378444 0 -.15 .113397459621556 0 3.1415
92653589795 0 -.866025403784439 -.5 ?0 32 441 496 0 1 443 439 444 +-.4 .2 .2 1 0
 0 0 -.5 .866025403784439 .1 .04 0 32 443 497 0 1 0 441 445 +0 -.2 .2 1 0 0 0 -.
5 .866025403784439 .1 .04 0 141 444 353 444 444 441 0 141 445 346 445 445 443 0
 141 442 328 442 442 439 0 13 117 367 0 0 0 113 0 0 20 0 0 84 32 376 d335dc80bf1
b2a122708a0c2b36d06d90 13 373 355 0 0 379 370 0 0 20 0 0 84 32 369 469acf701fda5
29d1d8749372c289eec0 13 366 349 0 0 373 363 0 0 20 0 0 84 32 362 220210c8165b7da
02f305120e950fa260 13 359 343 0 0 366 356 0 0 20 0 0 81 1 215 512 81 209 0 212 3
40 242 446 0 84 32 355 3ad4b994ffb1b5a3d4aa0bd7296d69f80 84 32 446 8a0def1d95d1e
bac2862bfc8fd83a6440 13 352 337 0 0 359 349 0 0 20 0 0 84 32 348 4eae208e2498c7c
f2185b47c1b2f0ec40 13 345 331 0 0 352 342 0 0 20 0 0 84 32 341 79b6669be9db5ebc2
2d19695fc73c07b0 13 336 325 0 0 345 332 0 0 20 0 0 84 32 331 419c49187faeeb6d127
1ae51c1c1b2b90 13 327 319 0 0 336 323 0 0 20 0 0 81 1 285 527 81 175 0 177 240 2
81 447 0 84 32 322 bf7eb2dc6425a121a161cbcbd5e9cf360 84 32 447 14b206b85ddab30d8
16471933e0676280 13 320 313 0 0 327 185 0 0 20 0 0 83 3 317 .5960784 .6666667 .6
862745 0 83 3 313 .5960784 .6666667 .6862745 0 84 32 286 72f848367e0690b43db317b
b81e9518d0 13 284 383 0 0 0 0 0 0 448 158 0 19 448 2282 449 1 450 145 284 S0 0 8
1 1 449 4547 138 448 0 0 451 452 453 0 19 450 714 452 1 454 448 278 S0 0 19 145
 4321 451 1 448 141 174 S0 0 81 1 451 4546 138 145 0 0 143 449 455 0 13 174 380
 0 0 0 0 0 0 145 170 0 81 1 143 4545 138 141 0 0 139 451 456 0 84 6 455 Part 10
 84 6 456 Part 10 81 1 452 4548 138 450 0 0 449 457 458 0 19 454 2757 457 1 459
 450 271 S0 0 13 278 386 0 0 0 0 0 0 450 273 0 81 1 457 4549 138 454 0 0 452 460
 461 0 19 459 875 460 1 462 454 262 S0 0 13 271 389 0 0 0 0 0 0 454 266 0 81 1 4
60 4550 138 459 0 0 457 463 464 0 19 462 2918 463 1 230 459 252 S0 0 13 262 392
 0 0 0 0 0 0 459 256 0 81 1 463 4551 138 462 0 0 460 465 466 0 19 230 3862 465 1
 226 462 208 S0 0 13 252 395 0 0 0 0 0 0 462 247 0 81 1 465 4552 138 230 0 0 463
 228 467 0 13 208 398 0 0 0 0 0 0 230 205 0 81 1 228 4553 138 226 0 0 465 222 46
8 0 84 6 467 Part 10 84 6 468 Part 10 84 6 466 Part 10 84 6 464 Part 10 84 6 461
 Part 10 84 6 458 Part 10 84 6 453 Part 10 84 32 280 db51a1a6a0a623c9856f57079d6
def9c0 84 32 272 93c0bd7f20125ce13296f8f5371d0cdd0 84 32 265 5173038ae17bcc42cd9
69700555df77e0 84 32 255 b2eccf45822111295fc828b5380914c00 84 32 246 51a803656dd
a30198d37930a7f0212e70 84 32 241 0e490159befa1841d54d98b3d3ad18490 84 32 237 bad
3c849b41af7cfa3f1d71dcbfbf5180 79 15 234 SDL/TYSA_COLOUR0 13 204 401 0 0 0 0 0 0
 226 200 0 84 6 229 Part 10 13 184 410 0 0 0 0 0 0 220 180 0 84 6 224 Part 10 13
 183 295 0 0 178 180 0 0 20 0 0 13 178 301 0 0 198 175 0 0 20 0 0 13 198 307 0 0
 320 195 0 0 20 0 0 83 3 217 .5960784 .6666667 .6862745 0 141 194 196 194 194 19
1 0 141 169 171 169 169 166 0 141 163 152 163 163 157 0 83 3 151 .5960784 .66666
67 .6862745 0 84 6 144 Part 10 84 6 140 Part 10 83 3 132 .5960784 .6666667 .6862
745 0 141 111 114 111 111 108 0 81 1 91 122 81 53 0 0 72 104 469 0 84 32 106 979
35453c32343e9d6cd4c99c6428a1c0 81 1 72 121 81 66 0 0 103 91 470 0 84 32 469 5e02
418605c9de28dcfff9d3e301fc9d0 81 1 103 120 81 16 0 0 85 72 471 0 84 32 470 deccb
9a271b7660b55ec5afba9a2a7f20 81 1 85 119 81 47 0 0 96 103 472 0 84 32 471 9fd20e
acbf2445c5f110717186fb1e1b0 81 1 96 118 81 94 0 0 83 85 473 0 84 32 472 0ad65816
9b14a3e33f1c5bbd97b3547b0 84 32 473 8a0fc930cfd21ffc43025d4051b410c20 81 1 93 11
4 81 73 0 0 22 82 474 0 84 32 102 c06bf638288924317aa147407c60b37b0 81 1 22 113
 81 9 0 0 65 93 475 0 84 32 474 a3f6df2d0b737b65eee7fbcc98f60b540 81 1 65 112 81
 61 0 0 0 22 476 0 84 32 475 6d510e946592a644f8be6d92a4e9bf1e0 84 32 476 2346e47
8860eb4c9a6e50d2af24caacc0 84 32 97 cb950e175ebb6f673aaf1736d39cc6f60 84 32 84 6
0db087b575ff6eaa9b6b9fe0289dd370 74 4 CI16 index_map_offset0 0 1 dCCZ20 13 6 0 0
 281 477 116 478 2 391 0 0 0 0 0 0 0 0 0 0 0 0 0 0 0 81 2 477 503 479 1 0 478 0
 0 480 481 0 81 1 478 564 482 1 477 483 0 0 484 0 80 1 482 485 486 9000 0 0 0 0
 3 5 0 0 0 FFTFFFFFFFFFFF1 0 81 1 483 755 11 1 478 487 0 487 0 0 82 255 1 484 12
9 0 80 1 11 482 488 9000 0 0 0 0 3 6 0 0 0 FFTFTFTTFFFFTF9 0 81 1 487 912 11 1 4
83 489 483 489 0 0 81 1 489 1069 11 1 487 490 487 490 0 0 81 1 490 1226 11 1 489
 491 489 491 0 0 81 1 491 1383 11 1 490 492 490 492 0 0 81 1 492 1540 11 1 491 4
93 491 493 0 0 81 1 493 1697 11 1 492 494 492 494 0 0 81 1 494 1854 11 1 493 495
 493 495 0 0 81 1 495 2011 11 1 494 496 494 496 0 0 81 1 496 2168 11 1 495 497 4
95 497 0 0 81 1 497 2325 11 1 496 498 496 498 0 0 81 1 498 2482 11 1 497 499 497
 499 0 0 81 1 499 2639 11 1 498 500 498 500 0 0 81 1 500 2796 11 1 499 501 499 5
01 0 0 81 1 501 2953 11 1 500 502 500 502 0 0 81 1 502 3110 11 1 501 503 501 503
 0 0 81 1 503 3267 11 1 502 504 502 504 0 0 81 1 504 3424 11 1 503 505 503 505 0
 0 81 1 505 3581 11 1 504 506 504 506 0 0 81 1 506 3738 11 1 505 507 505 507 0 0
 81 1 507 3895 11 1 506 508 506 508 0 0 81 1 508 4052 11 1 507 509 507 509 0 0 8
1 1 509 4209 11 1 508 12 508 12 0 0 81 1 12 4366 11 1 509 2 509 2 0 0 79 23 488
 Sim_NM_AssemblyModelAtt0 79 24 486 UG2/BODY_COLOR_ATTRIBUTE0 80 2 479 510 511 8
004 0 0 0 0 3 5 0 0 0 FFTFFFFFFFFFFF2 3 0 83 1 480 7830.64 0 84 8 481 Kg/Cu M 0
 79 16 511 SDL/TYSA_DENSITY0 1 0 
