**ABCDEFGHIJKLMNOPQRSTUVWXYZabcdefghijklmnopqrstuvwxyz**************************
**PARASOLID !"#$%&'()*+,-./:;<=>?@[\]^_`{|}~0123456789**************************
**PART1;
MC=unknown;
MC_MODEL=unknown;
MC_ID=unknown;
OS=unknown;
OS_RELEASE=unknown;
FRU=sdl_parasolid_customer_support;
APPL=parasolid_acceptance_tests;
SITE=unknown;
USER=unknown;
FORMAT=text;
GUISE=transmit;
KEY=/lore/joshia5/develop/inclusion_solver/meshes/simx/setup_1x1_nat.x_t;
FILE=/lore/joshia5/develop/inclusion_solver/meshes/simx/setup_1x1_nat.x_t;
DATE=unknown;
**PART2;
SCH=SCH_3100154_31001;
USFLD_SIZE=1;
**PART3;
**END_OF_HEADER*****************************************************************
T51 : TRANSMIT FILE created by modeller version 310015423 SCH_3100154_31001_1300
6215 1 12 34 CCCCCCI4 mesh1006 0 I8 polyline1008 0 CCCCCCCDI5 owner1040 0 CCCCCC
I13 boundary_mesh1006 0 I17 boundary_polyline1008 0 CCCA16 index_map_offset0 0 1
 dA9 index_map82 0 A17 node_id_index_map82 0 A20 schema_embedding_map82 0 A5 chi
ld12 0 A14 lowest_node_id0 0 1 dA16 mesh_offset_data206 0 Z1 207 2 3 0 0 0 0 0 0
 1e3 1e-8 0 0 0 1 0 6 1 0 4 5 6 0 0 7 8 9 0 0 0 0 0 0 0 0 81 255 1 2 181 10 1 11
 0 0 0 0 0 70 11 CI9 list_type0 0 1 uI10 notransmit0 0 1 lCCCDCCDI12 finger_inde
x0 0 1 dI12 finger_block1012 0 CZ3 0 4 T1 0 0 6 20 1 12 12 0 68 255 4 198 0 13 1
4 0 0 +5 0 0 .2 0 .5 -.866025403784439 0 -.05 .286602540378444 0 .05 .1133974596
21556 0 3.141592653589795 0 -.866025403784439 -.5 ?0 32 255 5 199 0 1 15 0 16 +0
 -14210854715202e-30 .2 1 0 0 0 -.5 .866025403784439 .1 .04 0 29 255 6 67 0 17 1
8 0 .55 .55 .4 0 19 8 CCCCCCCA5 owner12 0 Z7 178 0 1 19 0 20 V0 0 16 255 8 73 21
 ?22 0 23 24 0 0 1 0 18 255 9 15 0 25 0 26 27 ?1 0 17 255 25 0 28 29 30 9 31 32
 0 33 +0 18 26 10 0 30 9 34 35 ?1 0 29 27 17 0 9 35 36 .55 .55 0 0 29 35 12 0 26
 37 27 -.55 .55 0 0 29 36 70 0 38 27 39 .55 -.55 .4 0 18 38 60 0 40 41 0 36 ?1 0
 29 39 69 0 41 36 18 -.55 -.55 .4 0 18 41 58 0 42 43 38 39 ?1 0 29 18 68 0 43 39
 6 -.55 .55 .4 0 18 43 56 0 44 17 41 18 ?1 0 17 44 0 45 46 22 43 42 47 0 48 +0 1
8 17 54 0 49 50 43 6 ?1 0 17 49 0 51 33 48 17 52 53 0 54 +0 18 50 2 0 29 34 17 5
5 ?1 0 17 29 0 28 56 25 50 57 58 0 59 +0 18 34 5 0 60 26 50 37 ?1 0 29 55 4 0 50
 0 37 .55 -.55 0 0 29 37 7 0 34 55 35 -.55 -.55 0 0 17 60 0 45 22 46 34 30 61 0
 56 -0 15 255 45 79 0 44 62 0 0 17 22 0 45 44 60 41 63 8 0 64 +0 17 46 0 45 60 4
4 26 48 23 0 31 -0 17 30 0 28 25 56 26 60 61 0 46 +0 16 61 11 65 ?30 32 66 67 0
 0 1 0 17 56 0 28 30 29 34 68 66 0 63 +0 15 28 23 0 56 69 0 0 17 68 0 70 71 63 5
0 56 66 0 0 -0 16 66 6 72 ?56 61 73 74 0 0 1 0 17 63 0 70 68 64 34 22 8 0 0 -0 1
5 70 81 0 64 75 0 0 17 64 0 70 63 71 41 76 77 0 0 +0 17 71 0 70 64 68 38 59 78 0
 76 +0 17 76 0 79 80 42 38 64 77 0 0 -0 16 77 52 81 ?64 47 0 82 0 0 1 0 81 1 81
 116 83 77 0 0 84 85 86 0 16 47 50 87 ?44 53 77 88 0 0 1 0 30 255 82 66 0 77 89
 88 0 +.55 -.55 .4 -1 0 0 0 30 89 22 0 58 90 82 0 +.55 .55 0 0 -1 0 0 30 88 65 0
 47 82 91 0 +-.55 -.55 .4 0 1 0 0 30 91 64 0 53 88 92 0 +-.55 .55 .4 1 0 0 0 16
 53 48 93 ?49 73 47 91 0 0 1 0 30 92 63 0 73 91 94 0 +.55 .55 .4 0 -1 0 0 16 73
 46 95 ?40 66 53 92 0 0 1 0 30 94 87 0 96 92 97 0 +.55 .55 0 0 0 1 0 16 96 71 98
 ?54 23 78 94 0 0 1 0 30 97 88 0 23 94 24 0 +-.55 .55 0 0 0 1 0 16 23 72 85 ?48
 8 96 97 0 0 1 0 30 24 89 0 8 97 15 0 +-.55 -.55 0 0 0 1 0 30 15 90 0 78 24 5 0
 +.55 -.55 0 0 0 1 0 16 78 74 99 ?71 96 58 15 0 0 1 0 81 1 99 120 83 78 0 0 87 7
2 100 0 16 58 20 84 ?29 78 32 89 0 0 1 0 81 1 84 115 83 58 0 0 95 81 101 0 16 32
 16 102 ?25 58 61 90 0 0 1 0 81 1 102 123 83 32 0 0 93 103 104 0 30 90 19 0 32 6
7 89 0 +-.55 .55 0 1 0 0 0 30 67 14 0 61 74 90 0 +-.55 -.55 0 0 1 0 0 30 74 9 0
 66 0 67 0 +.55 -.55 0 -1 0 0 0 80 255 1 83 105 106 9000 1 1 1 1 1 1 1 1 0 FFFFT
FTFFFFFFF3 0 81 1 93 122 83 53 0 0 72 102 107 0 81 1 103 124 83 62 0 108 102 109
 110 0 84 255 32 104 97935453c32343e9d6cd4c99c6428a1c0 14 255 62 80 108 ?111 75
 45 112 113 -0 0 111 75 20 0 81 1 108 135 114 62 103 0 115 116 117 0 81 1 109 12
5 83 69 0 118 103 119 120 0 84 32 110 076ef0994a6daecce3cc730da47f59650 14 69 24
 118 ?121 122 28 112 123 +0 0 121 122 20 0 81 1 118 138 114 69 109 0 124 125 126
 0 81 1 119 126 83 111 0 116 109 127 128 0 84 32 120 08c73b05224c1019b531a40e35a
341b50 14 111 78 116 ?122 62 51 112 129 -0 0 122 62 20 0 81 1 116 136 114 111 11
9 0 108 124 130 0 81 1 127 127 83 121 0 125 119 131 132 0 84 32 128 ab3ff7ab34b3
4c133b23e85fd7560e690 14 121 42 125 ?0 69 79 112 133 -0 0 0 69 20 0 81 1 125 139
 114 121 127 0 118 134 135 0 81 1 131 128 83 75 0 115 127 136 137 0 84 32 132 43
880380fb964e2a6104206f3a5c5fa60 14 75 82 115 ?62 0 70 112 14 -0 0 62 0 20 0 81 1
 115 134 114 75 131 0 0 108 138 0 81 1 136 129 83 122 0 124 131 0 139 0 84 32 13
7 5ffbd2037fb241d3f6919210f7f795ef0 14 122 76 124 ?69 111 140 112 141 -0 0 69 11
1 20 0 81 1 124 137 114 122 136 0 116 118 142 0 84 32 139 86a9223cd20ef5ae8d8031
f27305fa830 80 1 114 0 143 8001 0 0 0 0 3 5 0 0 0 FFFFTFTFFFFFFF2 0 83 255 3 142
 .5960784 .6666667 .6862745 0 79 255 15 143 SDL/TYSA_COLOUR0 15 140 75 0 40 122
 0 0 13 255 112 91 0 0 0 75 0 0 19 0 0 50 255 141 83 0 122 133 129 0 +.55 .55 0
 -1 0 0 0 0 1 0 13 20 3 0 0 0 0 0 0 7 75 0 50 133 62 0 121 123 141 0 +0 0 .4 0 0
 -1 -1 0 0 0 50 129 84 0 111 141 113 0 +-.55 .55 0 0 -1 0 0 0 -1 0 50 113 85 0 6
2 129 14 0 +-.55 -.55 0 1 0 0 0 0 -1 0 50 14 86 0 75 113 4 0 +.55 -.55 0 0 1 0 0
 0 1 0 50 123 25 0 69 0 133 0 +0 0 0 0 0 -1 -1 0 0 0 19 19 92 144 1 145 7 146 S0
 0 81 1 144 205 147 19 0 0 0 148 149 0 19 145 186 148 1 0 19 150 S0 0 13 146 183
 0 0 112 0 0 0 19 13 0 14 13 190 134 ?0 0 0 150 4 -0 0 0 0 146 0 81 1 134 194 11
4 13 0 0 125 0 151 0 13 150 187 0 0 0 13 0 0 145 0 0 83 3 151 .5960784 .6666667
 .6862745 0 81 1 148 207 147 145 0 0 144 0 152 0 80 1 147 10 153 9000 0 0 0 0 3
 6 0 0 0 TTTFTFTTFFFFTF3 0 84 6 152 Part 10 79 11 153 SimPartName0 84 6 149 Part
 10 17 40 0 140 59 54 38 80 73 0 71 +0 17 59 0 140 57 40 50 71 78 0 68 -0 17 54
 0 140 40 57 17 33 96 0 80 +0 17 80 0 79 52 76 17 40 73 0 0 -0 15 79 45 0 76 121
 0 0 17 52 0 79 42 80 43 49 53 0 0 -0 17 42 0 79 76 52 41 44 47 0 22 -0 17 57 0
 140 54 59 9 29 58 0 0 -0 17 33 0 51 31 49 9 54 96 0 57 -0 15 51 77 0 49 111 0 0
 17 31 0 51 48 33 26 25 32 0 0 -0 17 48 0 51 49 31 43 46 23 0 52 +0 83 3 138 .59
60784 .6666667 .6862745 0 83 3 135 .5960784 .6666667 .6862745 0 83 3 130 .596078
4 .6666667 .6862745 0 83 3 126 .5960784 .6666667 .6862745 0 83 3 117 .5960784 .6
666667 .6862745 0 81 1 72 121 83 66 0 0 99 93 154 0 84 32 107 5e02418605c9de28dc
fff9d3e301fc9d0 84 32 154 deccb9a271b7660b55ec5afba9a2a7f20 79 15 106 UGS/Object
State0 81 1 95 114 83 73 0 0 21 84 155 0 84 32 101 c06bf638288924317aa147407c60b
37b0 81 1 21 113 83 8 0 0 65 95 156 0 84 32 155 a3f6df2d0b737b65eee7fbcc98f60b54
0 81 1 65 112 83 61 0 0 0 21 157 0 84 32 156 6d510e946592a644f8be6d92a4e9bf1e0 8
4 32 157 2346e478860eb4c9a6e50d2af24caacc0 81 1 87 119 83 47 0 0 98 99 158 0 84
 32 100 9fd20eacbf2445c5f110717186fb1e1b0 81 1 98 118 83 96 0 0 85 87 159 0 84 3
2 158 0ad658169b14a3e33f1c5bbd97b3547b0 81 1 85 117 83 23 0 0 81 98 160 0 84 32
 159 8a0fc930cfd21ffc43025d4051b410c20 84 32 160 cb950e175ebb6f673aaf1736d39cc6f
60 84 32 86 60db087b575ff6eaa9b6b9fe0289dd370 141 255 16 4 16 16 5 0 74 4 CI16 i
ndex_map_offset0 0 1 dCCZ20 12 6 0 0 136 161 134 11 2 148 0 0 0 0 0 0 0 0 0 0 0
 0 0 0 0 81 2 161 130 162 1 0 11 0 0 163 164 0 81 1 11 140 165 1 161 2 0 0 166 0
 80 1 165 83 167 9000 0 0 0 0 3 5 0 0 0 FFTFFFFFFFFFFF1 0 82 255 1 166 129 0 79
 24 167 UG2/BODY_COLOR_ATTRIBUTE0 80 2 162 168 169 8004 0 0 0 0 3 5 0 0 0 FFTFFF
FFFFFFFF2 3 0 83 1 163 7830.64 0 84 8 164 Kg/Cu M 0 79 16 169 SDL/TYSA_DENSITY0
 80 1 10 165 170 9000 0 0 0 0 3 6 0 0 0 FFTFTFTTFFFFTF9 0 79 23 170 Sim_NM_Assem
blyModelAtt0 1 0 
